<?xml version="1.0" encoding="utf-8" ?><svg xmlns="http://www.w3.org/2000/svg" xmlns:xlink="http://www.w3.org/1999/xlink" width="1024" height="1024" viewBox="0 0 1024 1024"><path fill="white" d="M0 0L1024 0L1024 1024L0 1024L0 0Z"/><path fill="#064270" d="M512.298 55.6968C517.432 58.5482 520.713 69.6901 522.75 74.9477C529.938 93.5024 529.968 114.124 522.02 132.447C520.225 137.45 515.343 145.434 515.241 150.654C514.931 166.592 516.052 185.588 517.465 201.303C522.276 194.299 529.247 182.576 532.701 174.719C533.424 172.029 534.049 168.713 534.448 166.011C538.103 141.286 559.18 120.763 582.882 114.243C580.162 141.198 572.898 158.347 548.111 171.33C544.25 173.352 537.051 177.485 535.08 181.429C528.639 194.319 522.17 212.644 518.805 226.595C517.988 229.981 519.256 247.323 519.437 251.532C520.015 262.067 520.024 272.655 520.69 283.186C521.713 299.35 520.057 314.75 523.653 330.625C530.775 322.496 555.797 282.395 559.003 272.411C555.623 262.505 550.723 254.064 547.752 243.025C542.285 222.71 545.455 209.684 555.468 191.79C569.71 204.452 573.433 229.659 568.732 247.433C567.778 251.041 563.088 262.035 566.289 264.176C571.621 258.922 579.792 244.333 583.814 237.56C584.758 235.971 585.587 226.643 585.678 224.329C586.151 212.373 589.915 201.3 596.548 191.347C602.254 182.471 618.252 169.49 628.629 167.537C625.93 192.156 622.544 209.891 602.617 227.138C597.599 231.482 590.127 236.04 586.587 241.454C574.479 259.969 564.469 279.088 551.853 297.32C567.733 283.599 582.991 274.701 601.331 265.022C603.296 263.985 614.016 252.374 616.909 249.56C634.358 232.592 657.853 229.228 681.206 230.35C669.562 251.273 647.258 269.399 622.652 270.016C617.918 270.135 603.795 269.38 600.486 270.593C589.76 274.524 573.697 286.294 565.194 293.825C581.24 285.331 609.532 280.19 627.78 281.711C646.953 283.31 660.265 291.622 672.398 306.061C653.954 310.065 627.044 310.362 611.985 297.504C607.259 293.468 605.33 286.505 597.585 287.032C578.213 288.35 559.933 301.155 546.4 314.231C553.759 312.48 560.3 311.741 567.844 312.036C598.305 313.227 617.431 320.127 630.075 348.969C611.263 349.46 590.936 345.282 577.03 331.656C572.744 327.456 570.089 322.467 567.222 317.278C558.238 315.245 553.133 316.012 544.215 318.294C513.557 349.939 515.659 413.368 523.857 454.34C526.616 468.13 534.551 482.834 543.106 493.966C569.42 484.147 600.849 482.994 628.05 489.977C659.217 497.978 691.171 513.767 723.732 514.766C743.748 515.381 769.664 508.196 787.662 499.844C784.11 509.753 780.222 521.317 775.48 530.59C728.725 545.684 695.16 539.105 650.186 523.241C632.33 516.713 615.237 511.45 595.975 510.993C547.535 509.841 505.719 539.313 457.383 541.343C421.278 542.859 389.371 530.497 355.888 519.131C313.183 504.435 285.797 509.138 244.917 524.912C242.05 517.607 239.493 509.511 236.985 502.02C243.31 498.825 251.323 496.193 257.971 493.936C288.948 483.419 323.021 482.448 354.344 492.32C375.846 499.097 397.164 507.839 419.359 512.949C432.773 516.037 461.578 520.564 473.38 512.74C483.844 505.802 492.236 473.289 494.684 460.288C498.046 442.437 500.043 423.445 500.915 405.279C501.247 398.363 502.095 389.662 501.331 382.982C500.59 376.507 497.869 365.583 493.752 360.268C482.198 345.352 470.119 333.8 451.13 330.254C428.251 325.981 434.163 337.47 418.848 347.247C401.618 358.246 382.726 358.554 363.554 354.901C383.289 325.067 426.197 323.101 458.399 325.969C451.018 320.691 437.235 313.215 428.519 314.148C402.391 316.945 381.753 307.915 363.018 290.016C359.667 286.814 355.857 283.896 352.81 279.852C353.153 279.756 353.497 279.668 353.843 279.588C376.121 274.172 399.652 279.38 417.563 293.691C422.832 297.959 427.231 303.688 432.512 307.636C438.574 311.229 445.562 312.081 452.101 314.914C466.428 321.121 475.051 333.697 488.131 341.855C486.047 337.223 482.39 330.523 480.867 325.827C476.687 312.94 474.47 308.343 465.231 298.319C449.86 281.641 431.935 263.669 410.278 255.661C407.728 254.719 401.406 255.588 398.55 255.362C390.763 255.671 384.158 254.179 376.802 251.896C361.465 247.137 342.16 228.684 335.384 214.445C363.159 211.181 387.013 221.19 405.517 241.931C414.345 251.826 418.948 254.955 430.254 261.266C441.793 267.708 455.634 278.082 463.739 288.228C455.431 270.827 446.945 255.605 436.469 239.405C434.372 236.162 427.931 218.645 426.17 217.414C412.018 207.522 398.069 196.892 391.469 180.237C389.483 175.193 385.558 162.961 386.131 156.942C387.018 155.479 386.393 155.981 388.154 155.501C392.275 156.239 399.953 160.636 403.572 163.129C414.251 170.181 424.133 183.792 426.511 196.502C430.217 216.308 441.91 236.836 453.503 253.279L453.844 253.755C451.714 242.716 447.934 237.875 447.895 224.5C447.854 210.76 451.713 197.883 461.492 187.841C476.923 210.262 474.669 234.535 465.738 258.953C464.654 261.915 462.907 268.59 463.873 271.583C467.417 282.566 475.099 293.399 481.105 303.386L483.668 297.854C476.304 272.837 474.705 262.22 489.92 239.361C495.445 248.749 501.324 265.8 497.722 276.454C493.471 289.03 489.703 299.721 486.647 312.79C490.486 323.267 495.396 333.655 499.368 344.126C500.466 347.022 503.067 354.207 505.985 354.989C507.907 352.87 507.039 344.901 507.205 341.631C508.22 321.731 508.493 301.677 509.082 281.758L509.883 242.669C509.908 240.564 510.336 226.017 509.703 223.29C508.144 215.348 494.786 180.414 488.199 176.72C461.971 162.008 442.139 150.396 437.872 114.027C457.131 119.183 477.395 133.924 485.74 152.328C488.11 157.554 489.543 164.757 492.06 169.397C496.767 178.079 501.832 185.388 505.934 194.545L506.55 194.769C509.367 189.271 506.626 171.828 507.351 165.847C509.451 149.899 502.537 137.594 498.953 122.543C493.885 101.258 500.598 73.8484 512.298 55.6968Z"/><path fill="#8692A2" d="M580.372 614.706C603.546 609.956 665.11 634.322 693.462 638.898C682.811 645.528 674.992 650.595 663.615 656.657C592.628 694.484 475.288 698.114 399.318 673.8C361.379 663.163 328.654 643.063 299.778 616.669C326.513 612.454 363.011 627.174 388.088 635.395C431.166 649.517 474.379 648.519 516.887 632.922C538.796 624.883 556.646 616.983 580.372 614.706Z"/><path fill="#60CAF4" d="M576.828 549.2C580.477 548.721 587.43 548.887 591.287 548.853C615.861 548.633 635.621 556.254 658.375 563.989C686.285 573.476 723.733 581.449 753.107 574.765C747.19 582.848 739.049 595.084 732.348 602.059C705.952 602.66 691.987 600.803 666.541 593.358C637.344 584.815 617.567 573.719 586.304 574.962C557.268 576.117 540.778 584.535 514.284 593.408C487.779 602.285 462.372 607.778 434.378 605.316C419.092 603.881 404.238 600.45 389.452 596.04C365.888 589.013 340.465 577.924 315.883 576.354C302.991 575.531 286.659 578.509 274.07 581.255C269.361 573.771 264.769 566.913 260.279 559.211C295.934 548.528 322.513 546.814 358.224 558.802C386.499 568.523 411.967 576.931 441.869 578.945C490.385 582.212 530.601 554.117 576.828 549.2Z"/><path fill="#064270" d="M290.772 704.709C325.126 700.012 356.763 724.108 361.364 758.475C365.965 792.842 341.78 824.412 307.4 828.916C273.157 833.403 241.739 809.334 237.157 775.103C232.574 740.873 256.554 709.388 290.772 704.709Z"/><path fill="white" d="M292.044 724.662C307.207 722.046 322.607 727.777 332.37 739.67C342.133 751.563 344.756 767.783 339.237 782.146C333.718 796.51 320.91 806.801 305.695 809.096C282.513 812.594 260.837 796.776 257.095 773.633C253.354 750.489 268.941 728.648 292.044 724.662Z"/><path fill="#064270" d="M680.14 708.012L709.723 707.974C731.391 707.965 750.261 707.912 767.309 724.01C778.77 735.047 785.383 750.182 785.694 766.09C786.114 783.385 780.454 797.254 768.658 809.633C751.916 826.268 730.288 826.072 708.993 826.031L680.221 826.038C679.64 787.164 680.139 746.994 680.14 708.012Z"/><path fill="white" d="M700.002 726.497C716.797 726.42 738.766 724.145 752.044 736.371C768.222 751.268 769.423 779.511 754.612 795.818C738.858 810.276 720.547 807.259 700.008 807.109L700.002 726.497Z"/><path fill="#064270" d="M563.987 708.022L643.52 708.017L643.488 721.752C633.022 733.353 622.73 745.11 612.615 757.019C633.353 760.221 648.392 771.801 645.889 794.282C641.797 831.048 598.346 834.325 571.921 820.15C565.86 816.403 561.841 812.57 557.008 807.426C561.783 802.479 566.62 797.593 571.519 792.768C578.744 800.817 580.931 803.398 591.695 807.941C610.812 816.01 636.353 800.171 621.146 779.716C615.319 771.88 597.523 771.984 587.66 771.915C587.284 767.909 586.839 763.91 586.326 759.92C588.876 754.826 609.624 732.034 614.595 726.442L563.985 726.489L563.987 708.022Z"/><path fill="#064270" d="M395.041 708.014L415.014 708.018L415.004 807.299C434.357 806.962 454.384 807.222 473.788 807.224C473.948 813.275 473.813 819.878 473.797 825.974C465.578 826.258 455.553 826.003 447.201 826.006L395.071 826.033C394.502 787.361 395.043 746.811 395.041 708.014Z"/><path fill="#064270" d="M503.069 708.013L523.01 708.017L523.004 826.014L503.124 826.045C502.424 787.666 503.072 746.578 503.069 708.013Z"/><path fill="#006FB3" d="M313.122 862.016C324.853 861.918 341.002 860.21 350.117 868.951C361.114 879.496 360.19 895.111 350.336 905.973C339.237 915.046 327.018 913.12 313.192 913.09L313.122 862.016Z"/><path fill="white" d="M321.499 870.067C328.901 869.932 338.333 869.127 343.969 874.817C351.009 881.926 350.781 893.303 343.959 900.423C336.609 905.957 330.222 905.071 321.438 905.009L321.499 870.067Z"/><path fill="#006FB3" d="M664.439 862.008L672.509 862.023C681.151 872.668 691.394 886.422 699.537 897.428C699.3 885.832 699.452 873.667 699.402 862.016L708.005 862.019C708.013 877.173 708.674 897.818 707.918 912.513L707.032 913.065L700.952 913.022C692.059 901.322 681.075 887.62 672.845 875.708L672.879 913.034L664.506 913.075L664.439 862.008Z"/><path fill="#006FB3" d="M604.238 861.161C604.692 861.127 605.147 861.1 605.603 861.081C612.76 860.795 619.866 863.121 625.217 867.953L620.241 874.208C591.712 855.299 578.216 895.671 601.559 905.42C606.891 907.646 614.15 904.602 619.027 901.734L619.085 891.971L606.011 892.023L605.969 884.972L606.068 884.64C607.525 883.486 623.936 883.986 627.109 884L627.139 905.621C610.618 920.069 585.181 916.175 581.24 892.54C578.55 876.406 587.9 863.469 604.238 861.161Z"/><path fill="#006FB3" d="M392.444 862.011L430.303 862.014L430.293 870.002L401.614 870.056L401.577 883.001L427.551 882.992L427.515 890.965L404.375 890.992L402.506 891.114C400.805 893.361 401.557 901.909 401.597 905.22L431.029 905.304L431.011 913.06L392.498 913.078L392.444 862.011Z"/><path fill="#006FB3" d="M479.416 861.144C487.375 860.497 493.579 862.877 499.74 867.704L495.267 874.225C489.834 870.638 481.504 866.13 474.946 870.911C473.379 872.053 472.509 873.598 472.276 875.526C474.749 885.519 501.545 881.867 501.271 897.902C501.041 911.354 491.078 914.081 479.786 913.997C471.414 912.484 468.422 910.995 461.675 905.838L467.096 898.917C467.767 899.575 468.467 900.203 469.191 900.802C475.095 905.591 486.411 909.385 492.112 902.113C493.263 900.645 493.547 899.789 493.238 897.89C488.073 889.209 466.088 892.301 464.247 878.426C462.837 867.798 469.733 862.711 479.416 861.144Z"/><path fill="#006FB3" d="M536.002 862.017L545.007 862.017L544.996 913.065L536.023 913.097L536.002 862.017Z"/></svg>