<?xml version="1.0" standalone="no"?>
<!DOCTYPE svg PUBLIC "-//W3C//DTD SVG 20010904//EN"
 "http://www.w3.org/TR/2001/REC-SVG-20010904/DTD/svg10.dtd">
<svg version="1.0" xmlns="http://www.w3.org/2000/svg"
 width="300.000000pt" height="300.000000pt" viewBox="0 0 300.000000 300.000000"
 preserveAspectRatio="xMidYMid meet">
<g transform="translate(0.000000,300.000000) scale(0.066667,-0.066667)"
fill="currentColor" stroke="none">
<path d="M2366 4042 c-236 -44 -447 -151 -625 -316 l-86 -80 -90 37 c-469 189
-986 -76 -1139 -586 -78 -259 5 -636 180 -817 46 -48 49 -56 31 -90 -363 -714
338 -1606 1103 -1403 75 20 83 20 95 -4 8 -14 62 -73 121 -132 456 -452 1230
-251 1426 371 21 66 38 135 38 154 0 31 11 37 94 53 598 116 823 953 359 1336
l-53 44 -2 214 c-8 764 -716 1359 -1452 1219z m437 -324 c771 -188 970 -1229
315 -1649 -88 -57 -88 -54 -9 -89 190 -87 399 15 545 264 47 80 60 74 118 -56
154 -342 -62 -630 -490 -654 l-145 -8 -10 -129 c-37 -457 -223 -670 -584 -669
-475 1 -667 434 -465 1053 10 32 6 34 -55 34 -248 -2 -408 -315 -338 -663 11
-55 10 -56 -43 -66 -398 -74 -764 223 -784 638 -6 136 23 316 51 316 5 0 56
-14 114 -32 209 -63 427 29 469 199 10 39 10 39 -100 49 -416 40 -643 211
-684 516 -72 525 450 830 905 529 140 -93 121 -96 202 32 202 318 609 477 988
385z"/>
</g>
</svg>
